<?xml version="1.0" encoding="UTF-8" standalone="no"?>
<!DOCTYPE svg PUBLIC "-//W3C//DTD SVG 1.1//EN"
 "http://www.w3.org/Graphics/SVG/1.1/DTD/svg11.dtd">
<!-- Generated by graphviz version 2.42.4 (0)
 -->
<!-- Title: HumanGuard_ERD Pages: 1 -->
<svg width="1407pt" height="1296pt"
 viewBox="0.00 0.00 1406.80 1296.30" xmlns="http://www.w3.org/2000/svg" xmlns:xlink="http://www.w3.org/1999/xlink">
<g id="graph0" class="graph" transform="scale(1 1) rotate(0) translate(14.4 1281.9)">
<title>HumanGuard_ERD</title>
<polygon fill="white" stroke="transparent" points="-14.4,14.4 -14.4,-1281.9 1392.4,-1281.9 1392.4,14.4 -14.4,14.4"/>
<!-- users -->
<g id="node1" class="node">
<title>users</title>
<polygon fill="#ffffff" stroke="transparent" points="0,-433.5 0,-759.5 384,-759.5 384,-433.5 0,-433.5"/>
<polygon fill="#1f4e79" stroke="transparent" points="1,-731.5 1,-758.5 383,-758.5 383,-731.5 1,-731.5"/>
<text text-anchor="start" x="170.5" y="-742.3" font-family="DejaVu Sans" font-weight="bold" font-size="14.00" fill="white">users</text>
<text text-anchor="start" x="7" y="-715.3" font-family="DejaVu Sans" font-weight="bold" font-size="14.00">id</text>
<text text-anchor="start" x="22" y="-715.3" font-family="DejaVu Sans" font-size="14.00"> : UUID </text>
<text text-anchor="start" x="77" y="-715.3" font-family="DejaVu Sans" font-size="14.00" fill="#666666">PK</text>
<text text-anchor="start" x="7" y="-688.3" font-family="DejaVu Sans" font-weight="bold" font-size="14.00">email</text>
<text text-anchor="start" x="50" y="-688.3" font-family="DejaVu Sans" font-size="14.00"> : VARCHAR(255) </text>
<text text-anchor="start" x="174" y="-688.3" font-family="DejaVu Sans" font-size="14.00" fill="#666666">UNIQUE, NOT NULL</text>
<text text-anchor="start" x="7" y="-661.3" font-family="DejaVu Sans" font-weight="bold" font-size="14.00">name</text>
<text text-anchor="start" x="51" y="-661.3" font-family="DejaVu Sans" font-size="14.00"> : VARCHAR(255) </text>
<text text-anchor="start" x="175" y="-661.3" font-family="DejaVu Sans" font-size="14.00" fill="#666666">NOT NULL</text>
<text text-anchor="start" x="7" y="-634.3" font-family="DejaVu Sans" font-weight="bold" font-size="14.00">avatar_url</text>
<text text-anchor="start" x="87" y="-634.3" font-family="DejaVu Sans" font-size="14.00"> : TEXT</text>
<text text-anchor="start" x="7" y="-607.3" font-family="DejaVu Sans" font-weight="bold" font-size="14.00">role</text>
<text text-anchor="start" x="38" y="-607.3" font-family="DejaVu Sans" font-size="14.00"> : VARCHAR(20) </text>
<text text-anchor="start" x="153" y="-607.3" font-family="DejaVu Sans" font-size="14.00" fill="#666666">user/admin</text>
<text text-anchor="start" x="7" y="-580.3" font-family="DejaVu Sans" font-weight="bold" font-size="14.00">password_hash</text>
<text text-anchor="start" x="127" y="-580.3" font-family="DejaVu Sans" font-size="14.00"> : VARCHAR(255) </text>
<text text-anchor="start" x="251" y="-580.3" font-family="DejaVu Sans" font-size="14.00" fill="#666666">NOT NULL</text>
<text text-anchor="start" x="7" y="-553.3" font-family="DejaVu Sans" font-weight="bold" font-size="14.00">is_verified</text>
<text text-anchor="start" x="87" y="-553.3" font-family="DejaVu Sans" font-size="14.00"> : BOOLEAN</text>
<text text-anchor="start" x="7" y="-526.3" font-family="DejaVu Sans" font-weight="bold" font-size="14.00">totp_secret</text>
<text text-anchor="start" x="97" y="-526.3" font-family="DejaVu Sans" font-size="14.00"> : VARCHAR(255)</text>
<text text-anchor="start" x="7" y="-499.3" font-family="DejaVu Sans" font-weight="bold" font-size="14.00">oauth_provider</text>
<text text-anchor="start" x="126" y="-499.3" font-family="DejaVu Sans" font-size="14.00"> : VARCHAR(50)</text>
<text text-anchor="start" x="7" y="-472.3" font-family="DejaVu Sans" font-weight="bold" font-size="14.00">oauth_id</text>
<text text-anchor="start" x="74" y="-472.3" font-family="DejaVu Sans" font-size="14.00"> : VARCHAR(255)</text>
<text text-anchor="start" x="7" y="-445.3" font-family="DejaVu Sans" font-weight="bold" font-size="14.00">created_at / updated_at / last_login</text>
<text text-anchor="start" x="283" y="-445.3" font-family="DejaVu Sans" font-size="14.00"> : TIMESTAMP</text>
<polygon fill="none" stroke="#2f4050" points="0,-433.5 0,-759.5 384,-759.5 384,-433.5 0,-433.5"/>
</g>
<!-- sites -->
<g id="node2" class="node">
<title>sites</title>
<polygon fill="#ffffff" stroke="transparent" points="515,-989 515,-1234 882,-1234 882,-989 515,-989"/>
<polygon fill="#1f4e79" stroke="transparent" points="516.5,-1205.5 516.5,-1232.5 881.5,-1232.5 881.5,-1205.5 516.5,-1205.5"/>
<text text-anchor="start" x="680" y="-1216.3" font-family="DejaVu Sans" font-weight="bold" font-size="14.00" fill="white">sites</text>
<text text-anchor="start" x="522.5" y="-1189.3" font-family="DejaVu Sans" font-weight="bold" font-size="14.00">id</text>
<text text-anchor="start" x="537.5" y="-1189.3" font-family="DejaVu Sans" font-size="14.00"> : UUID </text>
<text text-anchor="start" x="592.5" y="-1189.3" font-family="DejaVu Sans" font-size="14.00" fill="#666666">PK</text>
<text text-anchor="start" x="522.5" y="-1162.3" font-family="DejaVu Sans" font-weight="bold" font-size="14.00">user_id</text>
<text text-anchor="start" x="578.5" y="-1162.3" font-family="DejaVu Sans" font-size="14.00"> : UUID </text>
<text text-anchor="start" x="633.5" y="-1162.3" font-family="DejaVu Sans" font-size="14.00" fill="#666666">FK → users.id</text>
<text text-anchor="start" x="522.5" y="-1135.3" font-family="DejaVu Sans" font-weight="bold" font-size="14.00">name</text>
<text text-anchor="start" x="566.5" y="-1135.3" font-family="DejaVu Sans" font-size="14.00"> : VARCHAR(255) </text>
<text text-anchor="start" x="690.5" y="-1135.3" font-family="DejaVu Sans" font-size="14.00" fill="#666666">NOT NULL</text>
<text text-anchor="start" x="522.5" y="-1108.3" font-family="DejaVu Sans" font-weight="bold" font-size="14.00">domain</text>
<text text-anchor="start" x="580.5" y="-1108.3" font-family="DejaVu Sans" font-size="14.00"> : VARCHAR(255) </text>
<text text-anchor="start" x="704.5" y="-1108.3" font-family="DejaVu Sans" font-size="14.00" fill="#666666">UNIQUE</text>
<text text-anchor="start" x="522.5" y="-1081.3" font-family="DejaVu Sans" font-weight="bold" font-size="14.00">origin_server</text>
<text text-anchor="start" x="625.5" y="-1081.3" font-family="DejaVu Sans" font-size="14.00"> : TEXT </text>
<text text-anchor="start" x="678.5" y="-1081.3" font-family="DejaVu Sans" font-size="14.00" fill="#666666">NOT NULL</text>
<text text-anchor="start" x="522.5" y="-1054.3" font-family="DejaVu Sans" font-weight="bold" font-size="14.00">status</text>
<text text-anchor="start" x="572.5" y="-1054.3" font-family="DejaVu Sans" font-size="14.00"> : VARCHAR(20) </text>
<text text-anchor="start" x="687.5" y="-1054.3" font-family="DejaVu Sans" font-size="14.00" fill="#666666">verifying/active/suspended</text>
<text text-anchor="start" x="522.5" y="-1027.3" font-family="DejaVu Sans" font-weight="bold" font-size="14.00">settings</text>
<text text-anchor="start" x="586.5" y="-1027.3" font-family="DejaVu Sans" font-size="14.00"> : JSONB </text>
<text text-anchor="start" x="650.5" y="-1027.3" font-family="DejaVu Sans" font-size="14.00" fill="#666666">collector/analyzer/reaction</text>
<text text-anchor="start" x="522.5" y="-1000.3" font-family="DejaVu Sans" font-weight="bold" font-size="14.00">created_at / updated_at</text>
<text text-anchor="start" x="709.5" y="-1000.3" font-family="DejaVu Sans" font-size="14.00"> : TIMESTAMP</text>
<polygon fill="none" stroke="#2f4050" points="515,-989 515,-1234 882,-1234 882,-989 515,-989"/>
</g>
<!-- users&#45;&gt;sites -->
<g id="edge1" class="edge">
<title>users&#45;&gt;sites</title>
<path fill="none" stroke="#444444" d="M384.26,-730.83C458.09,-730.83 525,-730.83 525,-730.83 525,-730.83 525,-980.96 525,-980.96"/>
<polygon fill="#444444" stroke="#444444" points="522.2,-980.96 525,-988.96 527.8,-980.96 522.2,-980.96"/>
<text text-anchor="middle" x="449.5" y="-962.5" font-family="DejaVu Sans" font-size="10.00">owns</text>
<text text-anchor="middle" x="525" y="-968.46" font-family="DejaVu Sans" font-size="10.00">0..N</text>
<text text-anchor="middle" x="402.26" y="-728.33" font-family="DejaVu Sans" font-size="10.00">1</text>
</g>
<!-- files -->
<g id="node4" class="node">
<title>files</title>
<polygon fill="#ffffff" stroke="transparent" points="571,-673.5 571,-945.5 826,-945.5 826,-673.5 571,-673.5"/>
<polygon fill="#1f4e79" stroke="transparent" points="572.5,-917.5 572.5,-944.5 825.5,-944.5 825.5,-917.5 572.5,-917.5"/>
<text text-anchor="start" x="682" y="-928.3" font-family="DejaVu Sans" font-weight="bold" font-size="14.00" fill="white">files</text>
<text text-anchor="start" x="578.5" y="-901.3" font-family="DejaVu Sans" font-weight="bold" font-size="14.00">id</text>
<text text-anchor="start" x="593.5" y="-901.3" font-family="DejaVu Sans" font-size="14.00"> : UUID </text>
<text text-anchor="start" x="648.5" y="-901.3" font-family="DejaVu Sans" font-size="14.00" fill="#666666">PK</text>
<text text-anchor="start" x="578.5" y="-874.3" font-family="DejaVu Sans" font-weight="bold" font-size="14.00">user_id</text>
<text text-anchor="start" x="634.5" y="-874.3" font-family="DejaVu Sans" font-size="14.00"> : UUID </text>
<text text-anchor="start" x="689.5" y="-874.3" font-family="DejaVu Sans" font-size="14.00" fill="#666666">FK → users.id</text>
<text text-anchor="start" x="578.5" y="-847.3" font-family="DejaVu Sans" font-weight="bold" font-size="14.00">name</text>
<text text-anchor="start" x="622.5" y="-847.3" font-family="DejaVu Sans" font-size="14.00"> : VARCHAR(255) </text>
<text text-anchor="start" x="746.5" y="-847.3" font-family="DejaVu Sans" font-size="14.00" fill="#666666">safe name</text>
<text text-anchor="start" x="578.5" y="-820.3" font-family="DejaVu Sans" font-weight="bold" font-size="14.00">original_name</text>
<text text-anchor="start" x="688.5" y="-820.3" font-family="DejaVu Sans" font-size="14.00"> : VARCHAR(255)</text>
<text text-anchor="start" x="578.5" y="-793.3" font-family="DejaVu Sans" font-weight="bold" font-size="14.00">size</text>
<text text-anchor="start" x="609.5" y="-793.3" font-family="DejaVu Sans" font-size="14.00"> : BIGINT</text>
<text text-anchor="start" x="578.5" y="-766.3" font-family="DejaVu Sans" font-weight="bold" font-size="14.00">mime_type</text>
<text text-anchor="start" x="663.5" y="-766.3" font-family="DejaVu Sans" font-size="14.00"> : VARCHAR(100)</text>
<text text-anchor="start" x="578.5" y="-739.3" font-family="DejaVu Sans" font-weight="bold" font-size="14.00">hash</text>
<text text-anchor="start" x="616.5" y="-739.3" font-family="DejaVu Sans" font-size="14.00"> : VARCHAR(64) </text>
<text text-anchor="start" x="731.5" y="-739.3" font-family="DejaVu Sans" font-size="14.00" fill="#666666">SHA&#45;256</text>
<text text-anchor="start" x="578.5" y="-712.3" font-family="DejaVu Sans" font-weight="bold" font-size="14.00">path</text>
<text text-anchor="start" x="615.5" y="-712.3" font-family="DejaVu Sans" font-size="14.00"> : TEXT </text>
<text text-anchor="start" x="668.5" y="-712.3" font-family="DejaVu Sans" font-size="14.00" fill="#666666">local/MinIO path</text>
<text text-anchor="start" x="578.5" y="-685.3" font-family="DejaVu Sans" font-weight="bold" font-size="14.00">created_at</text>
<text text-anchor="start" x="663.5" y="-685.3" font-family="DejaVu Sans" font-size="14.00"> : TIMESTAMP</text>
<polygon fill="none" stroke="#2f4050" points="571,-673.5 571,-945.5 826,-945.5 826,-673.5 571,-673.5"/>
</g>
<!-- users&#45;&gt;files -->
<g id="edge3" class="edge">
<title>users&#45;&gt;files</title>
<path fill="none" stroke="#444444" d="M384.21,-702.17C384.21,-702.17 562.79,-702.17 562.79,-702.17"/>
<polygon fill="#444444" stroke="#444444" points="562.79,-704.97 570.79,-702.17 562.79,-699.37 562.79,-704.97"/>
<text text-anchor="middle" x="449.5" y="-752.5" font-family="DejaVu Sans" font-size="10.00">uploads</text>
<text text-anchor="middle" x="552.79" y="-699.67" font-family="DejaVu Sans" font-size="10.00">0..N</text>
<text text-anchor="middle" x="402.21" y="-699.67" font-family="DejaVu Sans" font-size="10.00">1</text>
</g>
<!-- shares -->
<g id="node5" class="node">
<title>shares</title>
<polygon fill="#ffffff" stroke="transparent" points="1056.5,-651 1056.5,-842 1299.5,-842 1299.5,-651 1056.5,-651"/>
<polygon fill="#1f4e79" stroke="transparent" points="1058,-813.5 1058,-840.5 1299,-840.5 1299,-813.5 1058,-813.5"/>
<text text-anchor="start" x="1152" y="-824.3" font-family="DejaVu Sans" font-weight="bold" font-size="14.00" fill="white">shares</text>
<text text-anchor="start" x="1064" y="-797.3" font-family="DejaVu Sans" font-weight="bold" font-size="14.00">id</text>
<text text-anchor="start" x="1079" y="-797.3" font-family="DejaVu Sans" font-size="14.00"> : UUID </text>
<text text-anchor="start" x="1134" y="-797.3" font-family="DejaVu Sans" font-size="14.00" fill="#666666">PK</text>
<text text-anchor="start" x="1064" y="-770.3" font-family="DejaVu Sans" font-weight="bold" font-size="14.00">file_id</text>
<text text-anchor="start" x="1110" y="-770.3" font-family="DejaVu Sans" font-size="14.00"> : UUID </text>
<text text-anchor="start" x="1165" y="-770.3" font-family="DejaVu Sans" font-size="14.00" fill="#666666">FK → files.id</text>
<text text-anchor="start" x="1064" y="-743.3" font-family="DejaVu Sans" font-weight="bold" font-size="14.00">token</text>
<text text-anchor="start" x="1110" y="-743.3" font-family="DejaVu Sans" font-size="14.00"> : VARCHAR(64) </text>
<text text-anchor="start" x="1225" y="-743.3" font-family="DejaVu Sans" font-size="14.00" fill="#666666">UNIQUE</text>
<text text-anchor="start" x="1064" y="-716.3" font-family="DejaVu Sans" font-weight="bold" font-size="14.00">shared_by</text>
<text text-anchor="start" x="1144" y="-716.3" font-family="DejaVu Sans" font-size="14.00"> : UUID </text>
<text text-anchor="start" x="1199" y="-716.3" font-family="DejaVu Sans" font-size="14.00" fill="#666666">FK → users.id</text>
<text text-anchor="start" x="1064" y="-689.3" font-family="DejaVu Sans" font-weight="bold" font-size="14.00">expires_at</text>
<text text-anchor="start" x="1146" y="-689.3" font-family="DejaVu Sans" font-size="14.00"> : TIMESTAMP</text>
<text text-anchor="start" x="1064" y="-662.3" font-family="DejaVu Sans" font-weight="bold" font-size="14.00">created_at</text>
<text text-anchor="start" x="1149" y="-662.3" font-family="DejaVu Sans" font-size="14.00"> : TIMESTAMP</text>
<polygon fill="none" stroke="#2f4050" points="1056.5,-651 1056.5,-842 1299.5,-842 1299.5,-651 1056.5,-651"/>
</g>
<!-- users&#45;&gt;shares -->
<g id="edge5" class="edge">
<title>users&#45;&gt;shares</title>
<path fill="none" stroke="#444444" d="M384.16,-662.25C384.16,-662.25 1048.31,-662.25 1048.31,-662.25"/>
<polygon fill="#444444" stroke="#444444" points="1048.31,-665.05 1056.31,-662.25 1048.31,-659.45 1048.31,-665.05"/>
<text text-anchor="middle" x="698.5" y="-622.5" font-family="DejaVu Sans" font-size="10.00">creates</text>
<text text-anchor="middle" x="1038.31" y="-659.75" font-family="DejaVu Sans" font-size="10.00">0..N</text>
<text text-anchor="middle" x="402.16" y="-659.75" font-family="DejaVu Sans" font-size="10.00">1</text>
</g>
<!-- api_keys -->
<g id="node6" class="node">
<title>api_keys</title>
<polygon fill="#ffffff" stroke="transparent" points="534,-234 534,-533 863,-533 863,-234 534,-234"/>
<polygon fill="#1f4e79" stroke="transparent" points="535.5,-504.5 535.5,-531.5 862.5,-531.5 862.5,-504.5 535.5,-504.5"/>
<text text-anchor="start" x="665.5" y="-515.3" font-family="DejaVu Sans" font-weight="bold" font-size="14.00" fill="white">api_keys</text>
<text text-anchor="start" x="541.5" y="-488.3" font-family="DejaVu Sans" font-weight="bold" font-size="14.00">id</text>
<text text-anchor="start" x="556.5" y="-488.3" font-family="DejaVu Sans" font-size="14.00"> : UUID </text>
<text text-anchor="start" x="611.5" y="-488.3" font-family="DejaVu Sans" font-size="14.00" fill="#666666">PK</text>
<text text-anchor="start" x="541.5" y="-461.3" font-family="DejaVu Sans" font-weight="bold" font-size="14.00">user_id</text>
<text text-anchor="start" x="597.5" y="-461.3" font-family="DejaVu Sans" font-size="14.00"> : UUID </text>
<text text-anchor="start" x="652.5" y="-461.3" font-family="DejaVu Sans" font-size="14.00" fill="#666666">FK → users.id</text>
<text text-anchor="start" x="541.5" y="-434.3" font-family="DejaVu Sans" font-weight="bold" font-size="14.00">name</text>
<text text-anchor="start" x="585.5" y="-434.3" font-family="DejaVu Sans" font-size="14.00"> : VARCHAR(255)</text>
<text text-anchor="start" x="541.5" y="-407.3" font-family="DejaVu Sans" font-weight="bold" font-size="14.00">key_hash</text>
<text text-anchor="start" x="614.5" y="-407.3" font-family="DejaVu Sans" font-size="14.00"> : VARCHAR(64) </text>
<text text-anchor="start" x="729.5" y="-407.3" font-family="DejaVu Sans" font-size="14.00" fill="#666666">UNIQUE, SHA&#45;256</text>
<text text-anchor="start" x="541.5" y="-380.3" font-family="DejaVu Sans" font-weight="bold" font-size="14.00">prefix</text>
<text text-anchor="start" x="587.5" y="-380.3" font-family="DejaVu Sans" font-size="14.00"> : VARCHAR(20) </text>
<text text-anchor="start" x="702.5" y="-380.3" font-family="DejaVu Sans" font-size="14.00" fill="#666666">hg_v1_</text>
<text text-anchor="start" x="541.5" y="-353.3" font-family="DejaVu Sans" font-weight="bold" font-size="14.00">last_used_at</text>
<text text-anchor="start" x="638.5" y="-353.3" font-family="DejaVu Sans" font-size="14.00"> : TIMESTAMP</text>
<text text-anchor="start" x="541.5" y="-326.3" font-family="DejaVu Sans" font-weight="bold" font-size="14.00">expires_at</text>
<text text-anchor="start" x="623.5" y="-326.3" font-family="DejaVu Sans" font-size="14.00"> : TIMESTAMP</text>
<text text-anchor="start" x="541.5" y="-299.3" font-family="DejaVu Sans" font-weight="bold" font-size="14.00">created_at</text>
<text text-anchor="start" x="626.5" y="-299.3" font-family="DejaVu Sans" font-size="14.00"> : TIMESTAMP</text>
<text text-anchor="start" x="541.5" y="-272.3" font-family="DejaVu Sans" font-weight="bold" font-size="14.00">revoked</text>
<text text-anchor="start" x="605.5" y="-272.3" font-family="DejaVu Sans" font-size="14.00"> : BOOLEAN</text>
<text text-anchor="start" x="541.5" y="-245.3" font-family="DejaVu Sans" font-weight="bold" font-size="14.00">created_by</text>
<text text-anchor="start" x="628.5" y="-245.3" font-family="DejaVu Sans" font-size="14.00"> : UUID </text>
<text text-anchor="start" x="683.5" y="-245.3" font-family="DejaVu Sans" font-size="14.00" fill="#666666">FK → users.id, optional</text>
<polygon fill="none" stroke="#2f4050" points="534,-234 534,-533 863,-533 863,-234 534,-234"/>
</g>
<!-- users&#45;&gt;api_keys -->
<g id="edge6" class="edge">
<title>users&#45;&gt;api_keys</title>
<path fill="none" stroke="#444444" d="M384.21,-483.25C384.21,-483.25 525.73,-483.25 525.73,-483.25"/>
<polygon fill="#444444" stroke="#444444" points="525.73,-486.05 533.73,-483.25 525.73,-480.45 525.73,-486.05"/>
<text text-anchor="middle" x="449.5" y="-511.5" font-family="DejaVu Sans" font-size="10.00">owns</text>
<text text-anchor="middle" x="515.73" y="-480.75" font-family="DejaVu Sans" font-size="10.00">0..N</text>
<text text-anchor="middle" x="402.21" y="-480.75" font-family="DejaVu Sans" font-size="10.00">1</text>
</g>
<!-- users&#45;&gt;api_keys -->
<g id="edge7" class="edge">
<title>users&#45;&gt;api_keys</title>
<path fill="none" stroke="#777777" stroke-dasharray="5,2" d="M384.21,-508.12C384.21,-508.12 525.73,-508.12 525.73,-508.12"/>
<polygon fill="#777777" stroke="#777777" points="525.73,-510.93 533.73,-508.12 525.73,-505.33 525.73,-510.93"/>
<text text-anchor="middle" x="449.5" y="-408.5" font-family="DejaVu Sans" font-size="10.00">created_by</text>
<text text-anchor="middle" x="523.73" y="-500.12" font-family="DejaVu Sans" font-size="10.00">0..N</text>
<text text-anchor="middle" x="387.71" y="-500.12" font-family="DejaVu Sans" font-size="10.00">1</text>
</g>
<!-- user_oauth -->
<g id="node7" class="node">
<title>user_oauth</title>
<polygon fill="#ffffff" stroke="transparent" points="520,0 520,-191 877,-191 877,0 520,0"/>
<polygon fill="#1f4e79" stroke="transparent" points="521.5,-162.5 521.5,-189.5 876.5,-189.5 876.5,-162.5 521.5,-162.5"/>
<text text-anchor="start" x="655" y="-173.3" font-family="DejaVu Sans" font-weight="bold" font-size="14.00" fill="white">user_oauth</text>
<text text-anchor="start" x="527.5" y="-146.3" font-family="DejaVu Sans" font-weight="bold" font-size="14.00">id</text>
<text text-anchor="start" x="542.5" y="-146.3" font-family="DejaVu Sans" font-size="14.00"> : UUID </text>
<text text-anchor="start" x="597.5" y="-146.3" font-family="DejaVu Sans" font-size="14.00" fill="#666666">PK</text>
<text text-anchor="start" x="527.5" y="-119.3" font-family="DejaVu Sans" font-weight="bold" font-size="14.00">user_id</text>
<text text-anchor="start" x="583.5" y="-119.3" font-family="DejaVu Sans" font-size="14.00"> : UUID </text>
<text text-anchor="start" x="638.5" y="-119.3" font-family="DejaVu Sans" font-size="14.00" fill="#666666">FK → users.id</text>
<text text-anchor="start" x="527.5" y="-92.3" font-family="DejaVu Sans" font-weight="bold" font-size="14.00">provider</text>
<text text-anchor="start" x="594.5" y="-92.3" font-family="DejaVu Sans" font-size="14.00"> : VARCHAR(50) </text>
<text text-anchor="start" x="709.5" y="-92.3" font-family="DejaVu Sans" font-size="14.00" fill="#666666">keycloak/google/github</text>
<text text-anchor="start" x="527.5" y="-65.3" font-family="DejaVu Sans" font-weight="bold" font-size="14.00">oauth_id</text>
<text text-anchor="start" x="594.5" y="-65.3" font-family="DejaVu Sans" font-size="14.00"> : VARCHAR(255)</text>
<text text-anchor="start" x="527.5" y="-38.3" font-family="DejaVu Sans" font-weight="bold" font-size="14.00">created_at</text>
<text text-anchor="start" x="612.5" y="-38.3" font-family="DejaVu Sans" font-size="14.00"> : TIMESTAMP</text>
<text text-anchor="start" x="527.5" y="-11.3" font-family="DejaVu Sans" font-weight="bold" font-size="14.00">UNIQUE(provider, oauth_id)</text>
<text text-anchor="start" x="743.5" y="-11.3" font-family="DejaVu Sans" font-size="14.00"> : </text>
<polygon fill="none" stroke="#2f4050" points="520,0 520,-191 877,-191 877,0 520,0"/>
</g>
<!-- users&#45;&gt;user_oauth -->
<g id="edge8" class="edge">
<title>users&#45;&gt;user_oauth</title>
<path fill="none" stroke="#444444" d="M384.21,-458.38C460.3,-458.38 530,-458.38 530,-458.38 530,-458.38 530,-199.32 530,-199.32"/>
<polygon fill="#444444" stroke="#444444" points="532.8,-199.32 530,-191.32 527.2,-199.32 532.8,-199.32"/>
<text text-anchor="middle" x="449.5" y="-98.5" font-family="DejaVu Sans" font-size="10.00">oauth bindings</text>
<text text-anchor="middle" x="530" y="-206.82" font-family="DejaVu Sans" font-size="10.00">0..N</text>
<text text-anchor="middle" x="402.21" y="-455.88" font-family="DejaVu Sans" font-size="10.00">1</text>
</g>
<!-- blacklist -->
<g id="node3" class="node">
<title>blacklist</title>
<polygon fill="#ffffff" stroke="transparent" points="1070.5,-1049.5 1070.5,-1267.5 1285.5,-1267.5 1285.5,-1049.5 1070.5,-1049.5"/>
<polygon fill="#1f4e79" stroke="transparent" points="1072,-1239.5 1072,-1266.5 1285,-1266.5 1285,-1239.5 1072,-1239.5"/>
<text text-anchor="start" x="1145.5" y="-1250.3" font-family="DejaVu Sans" font-weight="bold" font-size="14.00" fill="white">blacklist</text>
<text text-anchor="start" x="1078" y="-1223.3" font-family="DejaVu Sans" font-weight="bold" font-size="14.00">id</text>
<text text-anchor="start" x="1093" y="-1223.3" font-family="DejaVu Sans" font-size="14.00"> : UUID </text>
<text text-anchor="start" x="1148" y="-1223.3" font-family="DejaVu Sans" font-size="14.00" fill="#666666">PK</text>
<text text-anchor="start" x="1078" y="-1196.3" font-family="DejaVu Sans" font-weight="bold" font-size="14.00">site_id</text>
<text text-anchor="start" x="1129" y="-1196.3" font-family="DejaVu Sans" font-size="14.00"> : UUID </text>
<text text-anchor="start" x="1184" y="-1196.3" font-family="DejaVu Sans" font-size="14.00" fill="#666666">FK → sites.id</text>
<text text-anchor="start" x="1078" y="-1169.3" font-family="DejaVu Sans" font-weight="bold" font-size="14.00">ip</text>
<text text-anchor="start" x="1093" y="-1169.3" font-family="DejaVu Sans" font-size="14.00"> : VARCHAR(45) </text>
<text text-anchor="start" x="1208" y="-1169.3" font-family="DejaVu Sans" font-size="14.00" fill="#666666">NOT NULL</text>
<text text-anchor="start" x="1078" y="-1142.3" font-family="DejaVu Sans" font-weight="bold" font-size="14.00">reason</text>
<text text-anchor="start" x="1133" y="-1142.3" font-family="DejaVu Sans" font-size="14.00"> : TEXT</text>
<text text-anchor="start" x="1078" y="-1115.3" font-family="DejaVu Sans" font-weight="bold" font-size="14.00">created_at</text>
<text text-anchor="start" x="1163" y="-1115.3" font-family="DejaVu Sans" font-size="14.00"> : TIMESTAMP</text>
<text text-anchor="start" x="1078" y="-1088.3" font-family="DejaVu Sans" font-weight="bold" font-size="14.00">expires_at</text>
<text text-anchor="start" x="1160" y="-1088.3" font-family="DejaVu Sans" font-size="14.00"> : TIMESTAMP</text>
<text text-anchor="start" x="1078" y="-1061.3" font-family="DejaVu Sans" font-weight="bold" font-size="14.00">UNIQUE(site_id, ip)</text>
<text text-anchor="start" x="1228" y="-1061.3" font-family="DejaVu Sans" font-size="14.00"> : </text>
<polygon fill="none" stroke="#2f4050" points="1070.5,-1049.5 1070.5,-1267.5 1285.5,-1267.5 1285.5,-1049.5 1070.5,-1049.5"/>
</g>
<!-- sites&#45;&gt;blacklist -->
<g id="edge2" class="edge">
<title>sites&#45;&gt;blacklist</title>
<path fill="none" stroke="#444444" d="M882.17,-1141.75C882.17,-1141.75 1062.28,-1141.75 1062.28,-1141.75"/>
<polygon fill="#444444" stroke="#444444" points="1062.28,-1144.55 1070.28,-1141.75 1062.28,-1138.95 1062.28,-1144.55"/>
<text text-anchor="middle" x="935" y="-1161.5" font-family="DejaVu Sans" font-size="10.00">has</text>
<text text-anchor="middle" x="1052.28" y="-1139.25" font-family="DejaVu Sans" font-size="10.00">0..N</text>
<text text-anchor="middle" x="900.17" y="-1139.25" font-family="DejaVu Sans" font-size="10.00">1</text>
</g>
<!-- note -->
<g id="node8" class="node">
<title>note</title>
<polygon fill="#fff9e6" stroke="#888888" points="1362,-1006 988,-1006 988,-965 1368,-965 1368,-1000 1362,-1006"/>
<polyline fill="none" stroke="#888888" points="1362,-1006 1362,-1000 "/>
<polyline fill="none" stroke="#888888" points="1368,-1000 1362,-1000 "/>
<text text-anchor="middle" x="1178" y="-994" font-family="DejaVu Sans" font-size="10.00">Примечание: visitor sessions / поведенческие метрики</text>
<text text-anchor="middle" x="1178" y="-983" font-family="DejaVu Sans" font-size="10.00">в текущей реализации хранятся в оперативном MemorySessionStore,</text>
<text text-anchor="middle" x="1178" y="-972" font-family="DejaVu Sans" font-size="10.00">а не в PostgreSQL&#45;таблице.</text>
</g>
<!-- sites&#45;&gt;note -->
<g id="edge9" class="edge">
<title>sites&#45;&gt;note</title>
<path fill="none" stroke="#bbbbbb" stroke-dasharray="1,5" d="M882.17,-997.5C916.79,-997.5 953.06,-997.5 987.87,-997.5"/>
</g>
<!-- files&#45;&gt;shares -->
<g id="edge4" class="edge">
<title>files&#45;&gt;shares</title>
<path fill="none" stroke="#444444" d="M826.05,-757.75C826.05,-757.75 1048.12,-757.75 1048.12,-757.75"/>
<polygon fill="#444444" stroke="#444444" points="1048.12,-760.55 1056.12,-757.75 1048.12,-754.95 1048.12,-760.55"/>
<text text-anchor="middle" x="935" y="-797.5" font-family="DejaVu Sans" font-size="10.00">shared as</text>
<text text-anchor="middle" x="1038.12" y="-755.25" font-family="DejaVu Sans" font-size="10.00">0..N</text>
<text text-anchor="middle" x="844.05" y="-755.25" font-family="DejaVu Sans" font-size="10.00">1</text>
</g>
</g>
</svg>
